<svg xmlns="http://www.w3.org/2000/svg" viewBox="0 0 448.72 482.35"><defs><style>.cls-1{fill:#f15a29;stroke:#ef4136;stroke-miterlimit:10;}</style></defs><title>Asset 1</title><g id="Layer_2" data-name="Layer 2"><g id="Layer_1-2" data-name="Layer 1"><path class="cls-1" d="M347.92,478.64a347.06,347.06,0,0,0,54.37-187.07A349.42,349.42,0,0,0,394.73,219C338.89,282,220.08,278.9,178.42,187c0,0,62.25,4.5,98.5-17.78,56.79-34.9,97.74-4.88,105.09,4.89,0,0,0,0,0,0a72.08,72.08,0,0,0-5.52-14.41.32.32,0,0,0,0-.09c-13.86-27.07-45-46.57-83.93-32.3-45.64,16.73-99.44,56.74-162.94,33.07S15.48,79.56.89,16c0,0,82.69,85.06,176.34,16.89C206.52,17.11,230.68,8.27,250.86,4,299.7-6.53,325.35,9.4,344.58,17.62c17.16,7.35,56,32.39,72.95,74.52l.31-.87a349.17,349.17,0,0,1-69.92,387.37Z"/></g></g></svg>