<svg xmlns="http://www.w3.org/2000/svg" viewBox="0 0 633.65 340.76"><defs><style>.cls-1{fill:#fff;}</style></defs><g id="Layer_2" data-name="Layer 2"><g id="Layer_1-2" data-name="Layer 1"><path class="cls-1" d="M273.82,159.06,319.63,239c-2.73.22-4.75.52-6.77.52q-120.23,0-240.44-.13c-6,0-8.8,2.09-11.13,7.39-10,22.7-3.46,41.92,12,59.22,11.6,13,26,22.19,41.35,30.14,2,1,4,2.15,6,3.22l-.55,1.4c-11.82-3.83-23.78-7.26-35.42-11.55C62.68,321.1,41.7,311,23.83,295.5,14,287,5.69,277.24,2,264.48c-5.54-19.08.94-35.09,13.75-49,16.27-17.7,36.95-28.73,58.8-37.75,36.93-15.26,75.66-23.36,115.18-28,44.65-5.22,89.44-6.18,134.18-1.55,21.5,2.22,42.83,6.16,64.23,9.35a6.23,6.23,0,0,1,3.08,1.45C352.53,156.3,313.92,155.47,273.82,159.06ZM111.2,201.16l.49,1.3H255a21.58,21.58,0,0,0-1.23-3.73c-6.12-10.68-12.14-21.42-18.6-31.89-.95-1.54-4.22-2.73-6.14-2.41-38.57,6.36-76.27,15.69-111.51,33.24C115.36,198.74,113.3,200,111.2,201.16Z"/><path class="cls-1" d="M182.2,0l79.06,137.18c-7,0-13.08,0-19.17,0-6.49,0-13-.39-19.47,0-3.58.19-5.37-1.15-7-4.06-9.78-17.22-19.71-34.36-29.6-51.52-1.07-1.85-2.24-3.65-3.85-6.26-3.56,6-6.78,11.4-9.9,16.82-9,15.58-17.85,31.21-26.95,46.72-1,1.78-3.05,3.81-4.91,4.17-13.88,2.71-27.84,5-41.77,7.45a23.09,23.09,0,0,1-3.12,0Z"/><path class="cls-1" d="M210.3,286c1.53,1.45,3.21,2.61,4.32,4.17,3.93,5.58.28,13.59-7.14,14.63-5.88.83-11.94.6-17.91.41-1,0-2.81-2.22-2.84-3.44-.25-9.81-.1-19.63-.2-29.45,0-2.82,1.19-3.93,3.87-3.83,5,.17,10,.34,14.94.48,4,.11,7.16,1.61,8.75,5.44s.44,7.14-2.58,9.87A10.39,10.39,0,0,0,210.3,286Zm-12.11,15c6.95,0,10.42-2.24,10.27-6.44s-3.42-5.87-10.14-6.33c-5.09-.34-4.65,2.82-4.55,6S192.69,301.82,198.19,301Zm-4.36-22.87c-.49,3.58.18,6,4.83,5.73,5.68-.3,8.27-1.76,8.25-5.62s-2.56-5.07-8.93-5.46C193.5,272.49,193.58,275,193.83,278.11Z"/><path class="cls-1" d="M285.52,304.62c-5.45,1.93-8.52.52-10.07-4.53a22.12,22.12,0,0,0-3.65-7.58c-1.21-1.45-3.72-2.21-5.73-2.39-.71-.06-2.12,2.42-2.39,3.89a32.34,32.34,0,0,0-.11,7c.08,2.58-.12,4.46-3.6,4.5s-4.09-1.56-4.05-4.56C256,290.46,256,280,256,269c7.86-.82,15.49-1.47,22.74,1.26,6.75,2.53,8.05,11,2.33,15.9-3.14,2.66-2.71,4.61-1.07,7.51C281.91,297.13,283.56,300.73,285.52,304.62Zm-17.41-19.16c5.65,0,8.65-2.25,8.79-6.35.16-4.34-2.85-6.23-9.23-6.39-5.44-.14-3.82,3.74-4,6.55C263.36,282.77,263.25,286.3,268.11,285.46Z"/><path class="cls-1" d="M153.63,278.72c0,7.3.17,14.61-.12,21.9-.07,1.61-1.5,4.27-2.72,4.54-3.59.79-3.2-2.28-3.21-4.57,0-8.82-.15-17.64,0-26.46,0-1.84,1-5,2-5.22,3-.75,6.5-1.33,8.55,2.73,2.85,5.63,6.14,11,9.28,16.52a11.24,11.24,0,0,0,4,4.38V269.32c4.63-1.47,6.28-.3,6.2,3.89-.18,9,0,18-.17,27,0,1.74-1,4.43-2.28,5-2.56,1.1-4.94,0-6.48-2.87-3.66-6.9-7.6-13.65-11.46-20.44-.71-1.23-1.62-2.35-2.43-3.52Z"/><path class="cls-1" d="M408.56,277c-.23,4.23-.48,7-.51,9.68-.07,5.16.15,10.33-.14,15.47a4.17,4.17,0,0,1-2.7,3c-1,.11-3.06-1.57-3.08-2.49-.21-10.48-.18-21,0-31.45,0-.88,1.61-2.55,2.26-2.44,2.56.4,6.11.58,7.35,2.27,3.63,4.91,6.32,10.51,9.38,15.84a16.24,16.24,0,0,0,4.4,5.46c.15-1.8.41-3.59.43-5.39.05-5.16-.15-10.33.15-15.47.06-1,1.83-2.44,3-2.69.71-.15,2.61,1.61,2.63,2.53.17,10.48.14,21,0,31.45,0,.88-1.68,2.58-2.23,2.45-2-.47-4.74-1-5.69-2.51-4.27-6.73-8-13.8-12-20.73C411.09,280.71,410.24,279.54,408.56,277Z"/><path class="cls-1" d="M322,304.57c-5.69,2-8.53.4-10-4.34a22.81,22.81,0,0,0-3.64-7.61,8.15,8.15,0,0,0-5.69-2.39c-.88,0-2.26,2.64-2.59,4.25a29.47,29.47,0,0,0-.14,7c.09,2.62-.75,4-3.68,4s-3.69-1.45-3.67-4.05q.12-14.49,0-29c0-2.74,1-4,3.8-3.86,5.14.27,10.31.31,15.44.76,4.06.36,7.42,2.28,8.62,6.46s.59,8.11-3.22,10.7c-3,2.05-2.54,4.15-1.07,6.79C318.12,296.83,319.91,300.53,322,304.57Zm-22-25.81c-.24,3.69-.57,7.17,5,6.82s8.66-2.62,8.54-6.92c-.1-4-2.89-5.54-8.81-5.86C299.81,272.54,299.64,275.35,300,278.76Z"/><path class="cls-1" d="M521.74,286.11c-.07,15.67-8.51,22.66-22,19.2a11.11,11.11,0,0,1-1.91-.58c-6.61-3.1-8.5-9-8.83-15.58-.37-7.46.1-15.07,7.72-19.11a17.46,17.46,0,0,1,18.91,1C521.26,274.9,521.62,281,521.74,286.11Zm-7.31.85c-.68-3.31-.64-6.77-2.13-9.34-1.29-2.23-4.25-4.66-6.57-4.77s-6.08,1.93-7.05,4a23.11,23.11,0,0,0,.14,20.25c1,2,4.44,4.1,6.6,3.94,2.43-.19,5.5-2.4,6.77-4.6C513.76,293.75,513.76,290.13,514.43,287Z"/><path class="cls-1" d="M262.2,93.23C266,84,262.77,77.72,255.54,72c9.85.34,15.37-4.11,17.36-14.54,2.84,4.94,4.1,9.34,7,11.59s7.38,2.15,12.71,3.47c-8.91,4.91-10.72,11.81-7.74,20.86C277.16,87.57,270,87.93,262.2,93.23Z"/><path class="cls-1" d="M109,304.73c4.25-11.54,8.27-22.77,12.57-33.9,1.21-3.13,8.44-3.49,9.53-.46,4,11.21,7.6,22.56,11.41,34.06-4.73,1.66-7.92,1.63-8.66-3.58-.71-5-4.18-5.08-8.13-5s-7.79-.19-8.43,5.23C116.73,305.62,113.79,306.13,109,304.73Zm21.9-13.48-4.66-14.81h-1.43c-1.36,4.75-2.73,9.5-4.26,14.81Z"/><path class="cls-1" d="M224.1,286.87c0-4.83-.23-9.67.15-14.47.11-1.35,2-3.61,3.1-3.67,6.64-.33,13.3-.23,20,0,1,0,2,1.49,3,2.29-1,.65-1.92,1.81-2.93,1.87-4,.25-8,.24-12,.16-4.24-.09-3.68,2.87-3.67,5.51s-.55,5.63,3.68,5.53a57.41,57.41,0,0,1,8,.17c1,.12,1.95,1.23,2.93,1.9-1,.83-2,2.22-3.08,2.39a35.16,35.16,0,0,1-7.47.09c-4-.27-4.3,2.26-4,5.16s-1.52,6.86,3.83,6.91c4,0,8,0,12,.26,1.11.09,2.12,1.43,3.18,2.19-1.06.74-2.1,2.09-3.18,2.13-6.65.2-13.31.07-20,.14-2.55,0-3.56-1-3.5-3.59C224.19,296.85,224.11,291.86,224.1,286.87Z"/><path class="cls-1" d="M483.32,294.27c-1.62,7.74-4.46,10.48-11.26,11.44-8.17,1.15-14.13-1.18-17.15-7.11a25.19,25.19,0,0,1-.37-22.63c2.65-5.94,9.72-8.9,17.41-7.77,6.79,1,10.17,4.33,11.33,11.36-3.28,1.43-5.74,2.14-7.7-2.47-.9-2.12-4.68-4.46-6.87-4.21-2.53.28-6.38,3-6.79,5.21a65.44,65.44,0,0,0-.4,17.19,6.24,6.24,0,0,0,7,5.83c2.65-.35,6.09-2.36,7.24-4.61C477.77,292.45,480.09,293.55,483.32,294.27Z"/><path class="cls-1" d="M626.85,279.9c0-3.5-.32-6,.14-8.37.22-1.12,2-2.84,2.9-2.74,1.33.15,3.56,1.66,3.58,2.63.25,11.1.16,22.21.16,33.05-6,.44-11.41,1.15-16.79,1-2,0-4.46-1.52-5.91-3.08-4.45-4.81-4.53-16.1-.24-21S620.21,276.76,626.85,279.9Zm0,11.88c0-6.5-2.11-10.18-6.05-10.29-3.67-.1-5.95,3.67-6,9.9,0,6.64,2.1,10.38,5.94,10.43C624.93,301.88,626.79,298.81,626.85,291.78Z"/><path class="cls-1" d="M397.35,269.41c-3.66,11.33-7.1,22.27-10.85,33.11a5.3,5.3,0,0,1-3.95,2.73c-1.87.11-5.1-.58-5.49-1.71-3.94-11.26-7.42-22.68-11-34.07,6.52-1.84,7.32-1.44,9,4.27,2.19,7.26,4.34,14.53,6.5,21.8l1.41-.06c2.32-7.58,4.6-15.18,7-22.74C391.4,268.18,391.73,268.08,397.35,269.41Z"/><path class="cls-1" d="M291.61,124.93c2.21-7.71-.22-13.26-6.07-18.15,8.14.12,12.79-3.78,15.22-11.26,2.82,7.07,7.15,11.46,15.74,10.83-2.78,3.51-5.63,5.78-6.55,8.67s.27,6.13.61,10.29C304.22,121.57,298.11,119.58,291.61,124.93Z"/><path class="cls-1" d="M317.51,58.52c2.8,7.19,6.89,11.62,16,10.43-3,3.66-6.06,5.93-7,8.87s.3,6.36.63,10.21c-3.5-1.46-6.48-3.67-9.47-3.68s-6.05,2.16-10.15,3.81c2.58-7.55,1-13.45-5.37-18.27C310.39,69.93,314.85,65.76,317.51,58.52Z"/><path class="cls-1" d="M338.87,282.85c3.63-5.05,6.82-9.73,10.36-14.13.53-.66,2.73,0,5.22.16-2.59,4.42-4.48,8.24-6.92,11.68-4.31,6.07-6.61,12.54-5.63,20.06.34,2.65,0,4.93-3.75,4.88-3.59-.05-3.76-2.36-3.4-4.7,1.44-9.3-2.8-16.75-7.45-24.13-1.4-2.24-2.63-4.58-4.15-7.24,4.09-1.42,7.2-1.79,9.37,2.56C334.36,275.65,336.65,279.08,338.87,282.85Z"/><path class="cls-1" d="M562.15,286.77c0-4.82.09-9.65,0-14.46-.07-2.82,1.11-3.81,3.85-3.81s3.89,1.12,3.87,3.86c-.08,7.31.23,14.64-.13,21.93-.24,4.93,1.2,7.17,6.4,6.51a27.74,27.74,0,0,1,7.45.13c.89.14,1.58,1.6,2.36,2.46-.79.65-1.57,1.85-2.39,1.88-6.14.17-12.3.28-18.43,0-1-.06-2.68-2.24-2.77-3.52-.32-5-.13-10-.13-14.94Z"/><path class="cls-1" d="M590.86,290.07c-.54-2.13,2.22-6.74-3.28-8.5-.19-.06.08-3,.41-3.06,3.31-.59,3.46-3,3.9-5.55.13-.77,1.93-1.75,2.94-1.72s2.62,1.23,2.64,2c.11,3.16,1.08,5,4.59,5.07.57,0,1.6,1.31,1.56,2a2.57,2.57,0,0,1-1.77,1.8c-4.19.06-4.26,2.8-4.17,5.83.08,2.49,0,5,0,7.49,0,3.32.85,5.87,4.81,6.33.93.1,1.7,1.45,2.55,2.22-.86.63-1.64,1.58-2.6,1.83-6.38,1.66-10.4-1.05-11.14-7.46C591.06,296,591.05,293.63,590.86,290.07Z"/><path class="cls-1" d="M548.31,312.8c-.76-3.47-1.55-6.26-1.92-9.1-.17-1.34,0-3.51.83-4a6.51,6.51,0,0,1,4.72-.35c.79.23,1.64,2,1.61,3.08C553.43,306.92,550.89,310.17,548.31,312.8Z"/><path class="cls-1" d="M533,307.52c-1.74-2.75-3.41-4.3-3.11-5.16a5.38,5.38,0,0,1,3.54-3.11c.91-.16,3.06,1.83,3.07,2.87C536.46,303.43,534.85,304.75,533,307.52Z"/></g></g></svg>