<svg version="1.1" xmlns="http://www.w3.org/2000/svg" xmlns:xlink="http://www.w3.org/1999/xlink" x="0px" y="0px" viewBox="0 0 48 48" xml:space="preserve" width="48" height="48"><title>multiple 11</title><g class="nc-icon-wrapper" stroke-linecap="square" stroke-linejoin="miter" stroke-width="2" fill="#111111" stroke="#111111"><path data-color="color-2" fill="none" stroke-miterlimit="10" d="M9,13L9,13 c-2.209,0-4-1.791-4-4v0c0-2.209,1.791-4,4-4h0c2.209,0,4,1.791,4,4v0C13,11.209,11.209,13,9,13z"/> <path data-cap="butt" data-color="color-2" fill="none" stroke-miterlimit="10" d="M12,43H6L5,32l-3-1v-9 c0-2.209,1.791-4,4-4h6c1.454,0,2.727,0.777,3.427,1.937" stroke-linecap="butt"/> <path data-color="color-2" fill="none" stroke-miterlimit="10" d="M39,13 L39,13c2.209,0,4-1.791,4-4v0c0-2.209-1.791-4-4-4h0c-2.209,0-4,1.791-4,4v0C35,11.209,36.791,13,39,13z"/> <path data-cap="butt" data-color="color-2" fill="none" stroke-miterlimit="10" d="M36,43h6l1-11l3-1v-9 c0-2.209-1.791-4-4-4h-6c-1.454,0-2.727,0.777-3.427,1.937" stroke-linecap="butt"/> <path fill="none" stroke="#111111" stroke-miterlimit="10" d="M24,14L24,14 c-3.314,0-6-2.686-6-6v0c0-3.314,2.686-6,6-6h0c3.314,0,6,2.686,6,6v0C30,11.314,27.314,14,24,14z"/> <path fill="none" stroke="#111111" stroke-miterlimit="10" d="M29,46H19l-1-12l-4-1V23 c0-2.209,1.791-4,4-4h12c2.209,0,4,1.791,4,4v10l-4,1L29,46z"/></g></svg>