<svg xmlns="http://www.w3.org/2000/svg" xmlns:xlink="http://www.w3.org/1999/xlink" viewBox="0 0 362.3 362.3"><defs><style>.cls-1{fill:#fff;}.cls-2{fill:url(#linear-gradient);}.cls-3{fill:url(#linear-gradient-2);}.cls-4{fill:url(#linear-gradient-3);}.cls-5{fill:url(#linear-gradient-4);}.cls-6{fill:url(#linear-gradient-5);}.cls-7{fill:url(#linear-gradient-6);}.cls-8{fill:url(#linear-gradient-7);}.cls-9{fill:url(#linear-gradient-8);}.cls-10{fill:url(#linear-gradient-9);}</style><linearGradient id="linear-gradient" x1="74.56" y1="212.97" x2="254.61" y2="212.97" gradientTransform="matrix(1, 0, 0, -1, 0, 366.53)" gradientUnits="userSpaceOnUse"><stop offset="0" stop-color="#fa9306"/><stop offset="1" stop-color="#b60404"/></linearGradient><linearGradient id="linear-gradient-2" x1="187.04" y1="120.95" x2="219.41" y2="120.95" xlink:href="#linear-gradient"/><linearGradient id="linear-gradient-3" x1="219.45" y1="165.99" x2="262.34" y2="165.99" xlink:href="#linear-gradient"/><linearGradient id="linear-gradient-4" x1="255.79" y1="60.79" x2="290.51" y2="60.79" xlink:href="#linear-gradient"/><linearGradient id="linear-gradient-5" x1="71.79" y1="60.89" x2="96.71" y2="60.89" xlink:href="#linear-gradient"/><linearGradient id="linear-gradient-6" x1="159.62" y1="60.83" x2="182.78" y2="60.83" xlink:href="#linear-gradient"/><linearGradient id="linear-gradient-7" x1="206.39" y1="60.62" x2="232.92" y2="60.62" xlink:href="#linear-gradient"/><linearGradient id="linear-gradient-8" x1="124.32" y1="60.84" x2="132.11" y2="60.84" xlink:href="#linear-gradient"/><linearGradient id="linear-gradient-9" x1="224.82" y1="134.08" x2="245.72" y2="134.08" xlink:href="#linear-gradient"/></defs><g id="Layer_2" data-name="Layer 2"><g id="Layer_1-2" data-name="Layer 1"><rect class="cls-1" width="362.3" height="362.3" rx="53.79"/><g id="Layer_2-2" data-name="Layer 2"><g id="Layer_1-2-2" data-name="Layer 1-2"><path class="cls-2" d="M254.61,159.64c-7.82-12.1-19.63-13.26-27-10.5-9.86,3.7-13.68,10.88-13,24.76-1.35.37-2.79.7-4.19,1.16-23,7.54-37,22.93-40.33,47.3-.2,1.44-.42,2.39-2.25,2.7-9.66,1.52-16,7.5-17.61,16.36A21.79,21.79,0,0,0,161,264.08a76.77,76.77,0,0,0,7.57,3.27h-85c-6.87,0-10.24-4.33-8.45-11q15.28-56.74,30.56-113.54,6.69-24.81,13.33-49.61c1.18-4.4,3.7-6.39,8.35-6.42h18.29c3.62,0,3.63,0,3.66-3.72,0-5.59,0-11.19.19-16.78a12.85,12.85,0,0,1,.59-3.42c.6-2.22,1.19-4.47,2-6.63a21.87,21.87,0,0,1,8.51-10.49,36.83,36.83,0,0,1,13.07-5.46c5.64-1.23,10.77.13,15.84,2.21.39.16.74.52,1.14.59,3.33.53,5.57,2.65,7.6,5.07,3,3.57,6.33,7,7.48,11.68a35.11,35.11,0,0,1,1.09,7.2c.18,5.66.16,11.34,0,17,0,2.13.75,2.72,2.76,2.69,6.45-.08,13,0,19.37,0,4.2,0,6.74,1.87,7.85,5.95q8.92,33,17.77,66A7.07,7.07,0,0,1,254.61,159.64ZM134.2,135.44l.39.13v2.13c-.33,9-.62,17.9-1.05,26.86a3,3,0,0,0,2.34,3.53l.29,0c10.46,2.88,20.84,2.29,31.23-.36a2.39,2.39,0,0,0,2.23-2.54,3.07,3.07,0,0,0-.07-.42c-.58-8.73-1.05-17.46-1.56-26.19V136.3a9.36,9.36,0,0,1,2.15,3.19c.58,1.44,1.54,1.95,2.88,1.25q4-2.18,7.91-4.62c1.44-.93,1.54-2.06.5-3.61a115.81,115.81,0,0,1-8.06-12.7c-2.68-5.36-6.41-8.35-12.54-8.5a3.42,3.42,0,0,0-3.54,1.53c-2,2.88-4.13,5.62-6.39,8.64-2.29-3.17-4.41-6-6.44-9a2.38,2.38,0,0,0-2.88-1.13c-2.37.61-4.79,1-7.13,1.59a4.2,4.2,0,0,0-2.38,1.54c-3.85,6.22-7.55,12.52-11.34,18.72-.69,1.13-.67,2.11.45,2.76a73.21,73.21,0,0,0,8.37,4.6c.46.23,1.69-.38,2.13-1A37.74,37.74,0,0,0,134.2,135.44ZM177.84,86.7h16.55c1.86,0,2.72-.49,2.69-2.52-.08-5.77.15-11.61,0-17.42a16.81,16.81,0,0,0-1.65-7.44c-2.21-3.82-5-7.36-9.44-9-6.16-2.27-12-2.65-17.9,1.11s-8.71,9.47-9,16.31c-.21,5.59,0,11.17,0,16.76,0,1.73.68,2.22,2.31,2.19C166.88,86.65,172.32,86.7,177.84,86.7Z"/><path class="cls-3" d="M187,245.39a24.53,24.53,0,0,1,6.21-16.27c6.61-7.38,16-6.9,21.85,1,6.77,9.19,5.36,25.15-2.88,32.91-6.84,6.43-16,5.35-21.2-2.49C188.14,256.33,187,251.59,187,245.39Z"/><path class="cls-4" d="M237.8,217.09a21.84,21.84,0,0,1-11.91-3.2,12.76,12.76,0,0,1-4.76-17.4l.22-.38c4.32-7.42,11.24-10.79,19.45-11.87a22.31,22.31,0,0,1,14.53,2.65c6.93,4,9.06,11.66,4.87,18.46C255.1,213.64,247.05,216.6,237.8,217.09Z"/><path class="cls-5" d="M290.51,305.69c0,9.86-7.21,16.81-17.29,16.84s-17.41-7-17.38-16.8c0-10.17,7-16.87,17.44-16.79S290.52,295.63,290.51,305.69Zm-26.46-.17c-.08,5.76,3.63,9.92,9,10s9.21-4,9.27-9.71-3.66-9.87-9-9.93S264.12,299.68,264.05,305.52Z"/><path class="cls-6" d="M90.67,304.8c4.64,2.1,6.34,4.55,6,8.31A8.12,8.12,0,0,1,89.4,321a100.33,100.33,0,0,1-14.4.49A3.31,3.31,0,0,1,71.8,318a2.45,2.45,0,0,1,0-.27V293.68A3.55,3.55,0,0,1,75,289.81a3.14,3.14,0,0,1,.75,0c3.51,0,7-.16,10.54,0,6.28.33,9.78,4.23,8.89,9.57C94.86,302.06,93.08,303.53,90.67,304.8Zm-11.39,6.88a12.17,12.17,0,0,0,0,2.56c.1.46.7,1.16,1.09,1.16a29.54,29.54,0,0,0,5.56-.29,3.33,3.33,0,0,0,3-3.6,3.27,3.27,0,0,0-3.17-3.2,17.71,17.71,0,0,0-3-.17c-4,.07-3.44-.46-3.48,3.58Zm-.38-12.44c.39,1,.69,2.88,1.18,3a16.77,16.77,0,0,0,6.11-.44,3.45,3.45,0,0,0,1.61-2.88,3.93,3.93,0,0,0-2-2.6,7.26,7.26,0,0,0-3.36-.44c-3.25,0-3.21-.51-3.56,3.44Z"/><path class="cls-7" d="M171.39,322.51c-4.06-.13-7.12-.52-9.74-2.42-2-1.44-2.58-3.46-1.44-5.18s3-1.89,5.33-.77a19.1,19.1,0,0,0,5.39,1.89,3.3,3.3,0,0,0,3.95-2.47,2.21,2.21,0,0,0,.05-.25c.33-2-.89-3.07-2.53-3.73-2.06-.82-4.17-1.53-6.24-2.35-3.49-1.37-5.76-3.73-5.91-7.66a8.63,8.63,0,0,1,5.1-8.93,14.81,14.81,0,0,1,14.41.21,3.39,3.39,0,0,1,1.85,4.42.36.36,0,0,1,0,.09c-.79,1.84-2.58,2.35-4.71,1.56a23.12,23.12,0,0,0-5.28-1.52,3,3,0,0,0-3.51,2.31.59.59,0,0,0,0,.13c-.39,2,.85,2.88,2.4,3.56,2.06.82,4.21,1.44,6.25,2.3,4.22,1.79,6.17,4.57,6.08,8.46a9.72,9.72,0,0,1-6.67,9.34A31.73,31.73,0,0,1,171.39,322.51Z"/><path class="cls-8" d="M215.66,296.3c-2.27,0-4.14.08-6,0a3,3,0,0,1-3.25-2.72,2.68,2.68,0,0,1,0-.49c0-2.06,1.14-3.23,3.43-3.25h19.79a2.88,2.88,0,0,1,3.27,2.44,3.28,3.28,0,0,1,0,.7,3,3,0,0,1-2.64,3.27,2.53,2.53,0,0,1-.55,0c-1.91.12-3.84,0-6,0,0,1-.17,1.75-.17,2.5v17a20.3,20.3,0,0,1-.22,3.21,3.75,3.75,0,0,1-7.39-.23,17,17,0,0,1-.08-2.36V299.16C215.85,298.3,215.74,297.39,215.66,296.3Z"/><path class="cls-9" d="M132.08,305.86v11.61c0,3.1-1.35,4.61-3.89,4.6s-3.83-1.56-3.84-4.66V294c0-2.58,1-4.08,2.88-4.52,2.69-.67,4.81,1.06,4.88,4.14C132.14,297.69,132.08,301.77,132.08,305.86Z"/><path class="cls-10" d="M237.63,236.45a9.32,9.32,0,0,1-9.74,1.27c-2.78-1.23-3.71-3.33-2.63-6.12a15.58,15.58,0,0,1,6.49-7.78,4.33,4.33,0,0,1,6,1l.08.12a8.63,8.63,0,0,1,1.58,8.28,2.26,2.26,0,0,0,.93,2.88c1.64,1.27,3.24,2.61,4.75,4,.39.38.42,1.14.6,1.72-.63-.09-1.44,0-1.87-.32C241.78,240,239.76,238.22,237.63,236.45Z"/></g></g></g></g></svg>