<svg xmlns="http://www.w3.org/2000/svg" xmlns:xlink="http://www.w3.org/1999/xlink" viewBox="0 0 362.3 362.3"><defs><style>.cls-1{fill:url(#linear-gradient);}.cls-2{fill:#fff;}</style><linearGradient id="linear-gradient" x1="15.75" y1="56.65" x2="346.55" y2="387.44" gradientTransform="matrix(1, 0, 0, -1, 0, 403.19)" gradientUnits="userSpaceOnUse"><stop offset="0" stop-color="#fa9306"/><stop offset="0" stop-color="#c72905"/><stop offset="0" stop-color="#dc5405"/><stop offset="0.02" stop-color="#f99006"/><stop offset="0.87" stop-color="#bb0e04"/><stop offset="1" stop-color="#b60404"/></linearGradient></defs><g id="Layer_2" data-name="Layer 2"><g id="Layer_1-2" data-name="Layer 1"><rect class="cls-1" width="362.3" height="362.3" rx="53.79"/><g id="Layer_2-2" data-name="Layer 2"><g id="Layer_1-2-2" data-name="Layer 1-2"><path class="cls-2" d="M252.83,160.16c-7.63-11.81-19.15-12.93-26.32-10.25-9.63,3.61-13.35,10.63-12.65,24.16-1.32.37-2.73.69-4.09,1.14-22.49,7.35-36.07,22.38-39.35,46.16-.2,1.4-.41,2.33-2.2,2.62-9.43,1.49-15.6,7.33-17.19,16a21.28,21.28,0,0,0,10.4,22.11,74.31,74.31,0,0,0,7.4,3.19h-83c-6.71,0-10-4.22-8.25-10.77q14.91-55.37,29.82-110.79,6.52-24.21,13-48.41c1.15-4.3,3.61-6.24,8.15-6.27h17.85C150,89,150,89,150,85.4c0-5.46,0-10.92.19-16.38a13.06,13.06,0,0,1,.57-3.34c.59-2.17,1.17-4.36,2-6.47A21.27,21.27,0,0,1,161,49a35.67,35.67,0,0,1,12.75-5.33c5.51-1.2,10.51.13,15.46,2.15.38.16.72.51,1.11.58,3.25.52,5.44,2.59,7.42,4.95,2.93,3.48,6.17,6.8,7.3,11.4a35.46,35.46,0,0,1,1.07,7c.16,5.53.15,11.07,0,16.59,0,2.08.73,2.66,2.68,2.63,6.3-.09,12.65,0,18.9,0,4.11,0,6.58,1.83,7.66,5.8q8.71,32.21,17.35,64.39A6.66,6.66,0,0,1,252.83,160.16Zm-117.5-23.62.38.13v2.08c-.32,8.74-.6,17.47-1,26.21a2.92,2.92,0,0,0,2.29,3.45l.28,0c10.2,2.81,20.34,2.23,30.47-.35a2.33,2.33,0,0,0,2.17-2.49,3.12,3.12,0,0,0-.06-.41c-.56-8.51-1-17-1.52-25.55v-2.26a9.11,9.11,0,0,1,2.1,3.1c.56,1.41,1.5,1.92,2.81,1.23q3.95-2.13,7.71-4.52c1.41-.89,1.51-2,.49-3.51a115.85,115.85,0,0,1-7.87-12.4c-2.61-5.22-6.25-8.15-12.22-8.29a3.35,3.35,0,0,0-3.46,1.49c-1.94,2.81-4,5.48-6.24,8.43-2.24-3.09-4.3-5.9-6.28-8.75a2.33,2.33,0,0,0-2.82-1.1c-2.3.59-4.66.93-6.95,1.55a4.12,4.12,0,0,0-2.32,1.5c-3.75,6.07-7.37,12.22-11.06,18.27-.68,1.1-.66,2.06.43,2.69a73.79,73.79,0,0,0,8.17,4.5c.45.22,1.64-.38,2.08-1A35.88,35.88,0,0,0,135.33,136.54ZM177.92,89h16.15c1.81,0,2.66-.48,2.63-2.46-.09-5.62.14-11.33,0-17a16.36,16.36,0,0,0-1.62-7.27c-2.15-3.72-4.85-7.18-9.2-8.78-6-2.22-11.73-2.59-17.47,1.08s-8.51,9.24-8.77,15.91c-.22,5.45,0,10.91,0,16.36,0,1.69.66,2.17,2.24,2.14C167.22,88.94,172.54,89,177.92,89Z"/><path class="cls-2" d="M186.9,243.84A23.9,23.9,0,0,1,193,228c6.45-7.2,15.61-6.73,21.32,1,6.61,9,5.23,24.54-2.81,32.12-6.68,6.27-15.6,5.21-20.69-2.43C188,254.51,186.9,249.88,186.9,243.84Z"/><path class="cls-2" d="M236.43,216.22a21.24,21.24,0,0,1-11.62-3.12,12.44,12.44,0,0,1-4.65-17l.22-.38c4.22-7.23,11-10.52,19-11.58a21.84,21.84,0,0,1,14.18,2.59c6.76,3.89,8.84,11.38,4.75,18C253.31,212.85,245.46,215.74,236.43,216.22Z"/><path class="cls-2" d="M287.86,302.67c0,9.63-7,16.41-16.87,16.43s-17-6.83-17-16.38c0-9.93,6.8-16.46,17-16.39S287.87,292.86,287.86,302.67ZM262,302.51c-.07,5.62,3.54,9.68,8.74,9.74s9-3.94,9.05-9.48-3.57-9.62-8.78-9.68S262.11,296.81,262,302.51Z"/><path class="cls-2" d="M92.86,301.8c4.53,2.06,6.18,4.44,5.89,8.11a7.91,7.91,0,0,1-7.13,7.66,96.92,96.92,0,0,1-14.05.48,3.23,3.23,0,0,1-3.13-3.34c0-.08,0-.17,0-.26V291a3.47,3.47,0,0,1,3.14-3.77,3,3,0,0,1,.73,0c3.43,0,6.86-.16,10.29,0,6.12.32,9.54,4.13,8.67,9.34C97,299.13,95.21,300.57,92.86,301.8Zm-11.12,6.72a13.05,13.05,0,0,0,0,2.5c.1.45.69,1.13,1.07,1.13a28.22,28.22,0,0,0,5.43-.28,3.25,3.25,0,0,0,2.92-3.52,3.2,3.2,0,0,0-3.09-3.12,17.94,17.94,0,0,0-2.93-.17c-3.92.07-3.36-.45-3.4,3.5Zm-.36-12.14c.38,1,.67,2.81,1.15,2.89a16.17,16.17,0,0,0,6-.43A3.36,3.36,0,0,0,90.06,296a3.77,3.77,0,0,0-1.94-2.53,7.15,7.15,0,0,0-3.27-.44c-3.18,0-3.14-.49-3.47,3.36Z"/><path class="cls-2" d="M171.62,319.09c-4-.13-6.94-.51-9.5-2.36-2-1.41-2.51-3.37-1.4-5.06s3-1.84,5.2-.75a18.56,18.56,0,0,0,5.25,1.85,3.21,3.21,0,0,0,3.86-2.42,2,2,0,0,0,.05-.24c.32-1.95-.87-3-2.47-3.64-2-.8-4.06-1.49-6.09-2.29-3.4-1.34-5.62-3.64-5.76-7.48a8.42,8.42,0,0,1,5-8.71,14.43,14.43,0,0,1,14,.21,3.29,3.29,0,0,1,1.81,4.3,1,1,0,0,1,0,.1c-.77,1.8-2.51,2.29-4.59,1.52a22.21,22.21,0,0,0-5.16-1.48,2.89,2.89,0,0,0-3.42,2.25l0,.12c-.38,1.92.83,2.82,2.35,3.48,2,.8,4.1,1.4,6.1,2.25,4.12,1.74,6,4.45,5.93,8.25a9.49,9.49,0,0,1-6.51,9.12A31.5,31.5,0,0,1,171.62,319.09Z"/><path class="cls-2" d="M214.83,293.51c-2.22,0-4.05.09-5.86,0a2.91,2.91,0,0,1-3.17-2.65,2.57,2.57,0,0,1,0-.48c0-2,1.11-3.15,3.35-3.17h19.31a2.82,2.82,0,0,1,3.19,2.38,2.66,2.66,0,0,1,0,.69,2.89,2.89,0,0,1-2.57,3.18,3.15,3.15,0,0,1-.53,0c-1.87.11-3.76,0-5.85,0,0,1-.17,1.7-.17,2.43v16.6a18.16,18.16,0,0,1-.21,3.13,3.65,3.65,0,0,1-7.21-.22,16.22,16.22,0,0,1-.08-2.31V296.31C215,295.46,214.9,294.58,214.83,293.51Z"/><path class="cls-2" d="M133.27,302.84v11.33c0,3-1.32,4.5-3.8,4.49s-3.74-1.52-3.75-4.54V291.25c0-2.52,1-4,2.81-4.42,2.63-.64,4.7,1,4.77,4.05C133.32,294.87,133.27,298.85,133.27,302.84Z"/><path class="cls-2" d="M236.26,235.11a9.11,9.11,0,0,1-9.5,1.24c-2.71-1.2-3.62-3.25-2.57-6a15.18,15.18,0,0,1,6.34-7.59,4.22,4.22,0,0,1,5.88,1,.83.83,0,0,0,.08.12A8.42,8.42,0,0,1,238,232a2.21,2.21,0,0,0,.9,2.81c1.61,1.24,3.17,2.55,4.64,3.92.38.37.41,1.11.59,1.68-.62-.09-1.4,0-1.83-.31C240.31,238.56,238.34,236.84,236.26,235.11Z"/></g></g></g></g></svg>