<svg xmlns="http://www.w3.org/2000/svg" xmlns:xlink="http://www.w3.org/1999/xlink" viewBox="0 0 362.3 362.3"><defs><style>.cls-1{fill:url(#linear-gradient);}.cls-2{fill:#fff;}</style><linearGradient id="linear-gradient" x1="15.75" y1="56.65" x2="346.55" y2="387.44" gradientTransform="matrix(1, 0, 0, -1, 0, 403.19)" gradientUnits="userSpaceOnUse"><stop offset="0" stop-color="#fa9306"/><stop offset="0.44" stop-color="#d94e05"/><stop offset="0.82" stop-color="#c01904"/><stop offset="1" stop-color="#b60404"/></linearGradient></defs><g id="Layer_2" data-name="Layer 2"><g id="Layer_1-2" data-name="Layer 1"><rect class="cls-1" width="362.3" height="362.3" rx="53.79"/><g id="Layer_2-2" data-name="Layer 2"><g id="Layer_1-2-2" data-name="Layer 1-2"><path class="cls-2" d="M247.08,160.16c-7.63-11.81-19.15-12.93-26.32-10.25-9.63,3.61-13.36,10.63-12.65,24.16-1.32.37-2.73.69-4.09,1.14-22.49,7.35-36.07,22.38-39.36,46.16-.19,1.4-.4,2.33-2.19,2.62-9.43,1.49-15.6,7.33-17.19,16a21.28,21.28,0,0,0,10.4,22.11,73.32,73.32,0,0,0,7.4,3.19h-83c-6.7,0-10-4.22-8.25-10.77q14.93-55.37,29.83-110.79,6.52-24.21,13-48.41c1.15-4.3,3.61-6.24,8.15-6.27h17.85c3.53,0,3.54,0,3.57-3.62,0-5.46,0-10.92.18-16.38a13.07,13.07,0,0,1,.58-3.34c.59-2.17,1.17-4.36,1.95-6.47A21.35,21.35,0,0,1,155.26,49,35.67,35.67,0,0,1,168,43.65c5.51-1.2,10.51.13,15.46,2.15.38.16.72.51,1.11.58,3.25.52,5.44,2.59,7.42,4.95,2.92,3.48,6.17,6.8,7.3,11.4a34.73,34.73,0,0,1,1.06,7c.17,5.53.16,11.07,0,16.59,0,2.08.73,2.66,2.69,2.63,6.29-.09,12.65,0,18.9,0,4.11,0,6.58,1.83,7.66,5.8Q238.33,127,247,159.16A8.27,8.27,0,0,1,247.08,160.16Zm-117.5-23.62.38.13v2.08c-.32,8.74-.6,17.47-1,26.21a2.92,2.92,0,0,0,2.28,3.45l.29,0c10.2,2.81,20.34,2.23,30.47-.35a2.34,2.34,0,0,0,2.17-2.49,3.12,3.12,0,0,0-.06-.41c-.57-8.51-1-17-1.52-25.55v-2.26a8.94,8.94,0,0,1,2.09,3.1c.57,1.41,1.51,1.92,2.81,1.23q4-2.13,7.72-4.52c1.41-.89,1.5-2,.49-3.51a114.3,114.3,0,0,1-7.87-12.4c-2.61-5.22-6.25-8.15-12.23-8.29a3.33,3.33,0,0,0-3.45,1.49c-1.94,2.81-4,5.48-6.24,8.43-2.24-3.09-4.3-5.9-6.29-8.75a2.32,2.32,0,0,0-2.81-1.1c-2.3.59-4.66.93-6.95,1.55a4.09,4.09,0,0,0-2.32,1.5c-3.76,6.07-7.37,12.22-11.07,18.27-.67,1.1-.66,2.06.44,2.69a73.79,73.79,0,0,0,8.17,4.5c.45.22,1.64-.38,2.08-1A35.88,35.88,0,0,0,129.58,136.54ZM172.17,89h16.15c1.81,0,2.65-.48,2.63-2.46-.09-5.62.14-11.33,0-17a16.5,16.5,0,0,0-1.62-7.27c-2.15-3.72-4.85-7.18-9.21-8.78-6-2.22-11.72-2.59-17.47,1.08s-8.5,9.24-8.77,15.91c-.21,5.45,0,10.91,0,16.36,0,1.69.66,2.17,2.25,2.14C161.47,88.94,166.79,89,172.17,89Z"/><path class="cls-2" d="M181.15,243.84A23.85,23.85,0,0,1,187.21,228c6.45-7.2,15.61-6.73,21.32,1,6.61,9,5.23,24.54-2.81,32.12-6.68,6.27-15.6,5.21-20.69-2.43C182.22,254.51,181.15,249.88,181.15,243.84Z"/><path class="cls-2" d="M230.68,216.22a21.24,21.24,0,0,1-11.62-3.12,12.44,12.44,0,0,1-4.65-17l.22-.38c4.22-7.23,11-10.52,19-11.58a21.82,21.82,0,0,1,14.18,2.59c6.77,3.89,8.85,11.38,4.76,18C247.56,212.85,239.7,215.74,230.68,216.22Z"/><path class="cls-2" d="M282.11,302.67c0,9.63-7,16.41-16.87,16.43s-17-6.83-17-16.38c0-9.93,6.8-16.46,17-16.39S282.12,292.86,282.11,302.67Zm-25.82-.16c-.07,5.62,3.54,9.68,8.74,9.74s9-3.94,9.05-9.48-3.57-9.62-8.78-9.68S256.36,296.81,256.29,302.51Z"/><path class="cls-2" d="M87.11,301.8c4.52,2.06,6.18,4.44,5.89,8.11a7.91,7.91,0,0,1-7.13,7.66,97,97,0,0,1-14.05.48,3.23,3.23,0,0,1-3.13-3.34,2.46,2.46,0,0,1,0-.26V291a3.46,3.46,0,0,1,3.14-3.77,2.89,2.89,0,0,1,.72,0c3.43,0,6.86-.16,10.29,0,6.13.32,9.55,4.13,8.68,9.34C91.2,299.13,89.45,300.57,87.11,301.8ZM76,308.52a13.05,13.05,0,0,0,0,2.5c.1.45.69,1.13,1.07,1.13a28.07,28.07,0,0,0,5.42-.28,3.25,3.25,0,0,0,2.93-3.52,3.2,3.2,0,0,0-3.09-3.12,17.94,17.94,0,0,0-2.93-.17c-3.92.07-3.36-.45-3.4,3.5Zm-.37-12.14c.38,1,.68,2.81,1.16,2.89a16.2,16.2,0,0,0,6-.43A3.36,3.36,0,0,0,84.31,296a3.8,3.8,0,0,0-1.94-2.53,7.15,7.15,0,0,0-3.27-.44c-3.18,0-3.14-.49-3.48,3.36Z"/><path class="cls-2" d="M165.87,319.09c-4-.13-6.94-.51-9.5-2.36-2-1.41-2.51-3.37-1.4-5.06s3-1.84,5.2-.75a18.56,18.56,0,0,0,5.25,1.85,3.22,3.22,0,0,0,3.86-2.42,2,2,0,0,0,.05-.24c.32-1.95-.87-3-2.47-3.64-2-.8-4.07-1.49-6.09-2.29-3.4-1.34-5.62-3.64-5.76-7.48a8.43,8.43,0,0,1,5-8.71,14.45,14.45,0,0,1,14.06.21,3.29,3.29,0,0,1,1.81,4.3,1,1,0,0,1,0,.1c-.77,1.8-2.52,2.29-4.6,1.52a21.93,21.93,0,0,0-5.16-1.48,2.9,2.9,0,0,0-3.42,2.25.5.5,0,0,1,0,.12c-.38,1.92.83,2.82,2.35,3.48,2,.8,4.1,1.4,6.1,2.25,4.12,1.74,6,4.45,5.93,8.25a9.49,9.49,0,0,1-6.51,9.12A31.5,31.5,0,0,1,165.87,319.09Z"/><path class="cls-2" d="M209.08,293.51c-2.22,0-4.05.09-5.86,0a2.93,2.93,0,0,1-3.18-2.65,3.84,3.84,0,0,1,0-.48c0-2,1.11-3.15,3.35-3.17H222.7a2.82,2.82,0,0,1,3.19,2.38,3.18,3.18,0,0,1,0,.69,2.89,2.89,0,0,1-2.57,3.18,3.15,3.15,0,0,1-.53,0c-1.87.11-3.76,0-5.85,0,0,1-.17,1.7-.17,2.43v16.6a20.41,20.41,0,0,1-.21,3.13,3.65,3.65,0,0,1-7.21-.22,17.85,17.85,0,0,1-.09-2.31V296.31C209.26,295.46,209.15,294.58,209.08,293.51Z"/><path class="cls-2" d="M127.52,302.84v11.33c0,3-1.33,4.5-3.8,4.49s-3.74-1.52-3.75-4.54V291.25c0-2.52,1-4,2.81-4.42,2.63-.64,4.69,1,4.76,4.05C127.57,294.87,127.52,298.85,127.52,302.84Z"/><path class="cls-2" d="M230.51,235.11a9.11,9.11,0,0,1-9.5,1.24c-2.71-1.2-3.63-3.25-2.57-6a15.18,15.18,0,0,1,6.34-7.59,4.2,4.2,0,0,1,5.87,1l.09.12a8.42,8.42,0,0,1,1.54,8.08,2.21,2.21,0,0,0,.9,2.81c1.6,1.24,3.16,2.55,4.64,3.92.38.37.41,1.11.59,1.68-.62-.09-1.41,0-1.83-.31C234.56,238.56,232.59,236.84,230.51,235.11Z"/></g></g></g></g></svg>