<svg xmlns="http://www.w3.org/2000/svg" xmlns:xlink="http://www.w3.org/1999/xlink" viewBox="0 0 151.83 196.31"><defs><style>.cls-1{fill:url(#linear-gradient);}.cls-2{fill:url(#linear-gradient-2);}.cls-3{fill:url(#linear-gradient-3);}.cls-4{fill:url(#linear-gradient-4);}.cls-5{fill:url(#linear-gradient-5);}.cls-6{fill:url(#linear-gradient-6);}.cls-7{fill:url(#linear-gradient-7);}.cls-8{fill:url(#linear-gradient-8);}.cls-9{fill:url(#linear-gradient-9);}</style><linearGradient id="linear-gradient" x1="1.9" y1="78.99" x2="126.91" y2="78.99" gradientUnits="userSpaceOnUse"><stop offset="0" stop-color="#fa9306"/><stop offset="1" stop-color="#b60404"/></linearGradient><linearGradient id="linear-gradient-2" x1="79.99" y1="142.89" x2="102.46" y2="142.89" xlink:href="#linear-gradient"/><linearGradient id="linear-gradient-3" x1="102.5" y1="111.62" x2="132.28" y2="111.62" xlink:href="#linear-gradient"/><linearGradient id="linear-gradient-4" x1="127.73" y1="184.65" x2="151.83" y2="184.65" xlink:href="#linear-gradient"/><linearGradient id="linear-gradient-5" x1="0" y1="184.6" x2="17.3" y2="184.6" xlink:href="#linear-gradient"/><linearGradient id="linear-gradient-6" x1="60.96" y1="184.62" x2="77.05" y2="184.62" xlink:href="#linear-gradient"/><linearGradient id="linear-gradient-7" x1="93.44" y1="184.79" x2="111.84" y2="184.79" xlink:href="#linear-gradient"/><linearGradient id="linear-gradient-8" x1="36.45" y1="184.62" x2="41.86" y2="184.62" xlink:href="#linear-gradient"/><linearGradient id="linear-gradient-9" x1="106.23" y1="133.77" x2="120.74" y2="133.77" xlink:href="#linear-gradient"/></defs><g id="Layer_2" data-name="Layer 2"><g id="Layer_1-2" data-name="Layer 1"><path class="cls-1" d="M126.91,83.22c-5.43-8.4-13.63-9.2-18.73-7.29-6.85,2.57-9.5,7.56-9,17.19-.94.26-1.94.49-2.91.81-16,5.23-25.66,15.92-28,32.84-.14,1-.29,1.66-1.56,1.87C60,129.7,55.61,133.85,54.48,140a15.13,15.13,0,0,0,7.4,15.73A52.18,52.18,0,0,0,67.14,158H8.1c-4.77,0-7.11-3-5.87-7.66q10.61-39.4,21.22-78.83,4.64-17.22,9.25-34.44c.82-3.06,2.57-4.44,5.8-4.46,4.24,0,8.47,0,12.7,0,2.51,0,2.52,0,2.54-2.58,0-3.88,0-7.77.13-11.65A9.27,9.27,0,0,1,54.28,16c.42-1.54.83-3.1,1.39-4.6a15.15,15.15,0,0,1,5.91-7.28A25.4,25.4,0,0,1,70.65.33c3.92-.86,7.48.09,11,1.53.27.11.51.36.79.41,2.31.37,3.87,1.84,5.28,3.52,2.08,2.48,4.39,4.84,5.19,8.11a24.77,24.77,0,0,1,.76,5c.12,3.93.11,7.87,0,11.8,0,1.48.52,1.89,1.91,1.87,4.48-.06,9,0,13.45,0,2.92,0,4.68,1.3,5.45,4.13q6.2,22.91,12.34,45.81A5.12,5.12,0,0,1,126.91,83.22Zm-83.6-16.8.27.09c0,.49,0,1,0,1.48-.23,6.22-.43,12.43-.73,18.65a2.08,2.08,0,0,0,1.83,2.48c7.26,2,14.47,1.59,21.68-.25a1.66,1.66,0,0,0,1.5-2.06c-.4-6.06-.73-12.12-1.08-18.18,0-.53,0-1.07,0-1.61a6.44,6.44,0,0,1,1.49,2.21c.4,1,1.07,1.36,2,.87q2.81-1.51,5.49-3.21c1-.64,1.07-1.43.35-2.5a80.89,80.89,0,0,1-5.6-8.82c-1.86-3.72-4.45-5.8-8.7-5.9a2.38,2.38,0,0,0-2.46,1.06c-1.38,2-2.87,3.9-4.44,6-1.59-2.2-3.06-4.2-4.47-6.23a1.65,1.65,0,0,0-2-.78c-1.64.42-3.32.66-4.95,1.1a2.94,2.94,0,0,0-1.65,1.07c-2.67,4.32-5.24,8.69-7.87,13-.48.78-.47,1.46.31,1.91C36.15,68,38.09,69.06,40.09,70c.32.16,1.17-.27,1.48-.67A26.46,26.46,0,0,0,43.31,66.42Zm30.3-33.84c3.83,0,7.66,0,11.49,0,1.29,0,1.89-.34,1.87-1.75-.06-4,.1-8.06,0-12.09a11.63,11.63,0,0,0-1.15-5.17c-1.53-2.65-3.45-5.11-6.55-6.25-4.28-1.58-8.34-1.84-12.43.77s-6.05,6.57-6.24,11.32c-.15,3.88,0,7.76,0,11.64,0,1.2.47,1.54,1.6,1.52C66,32.55,69.78,32.58,73.61,32.58Z"/><path class="cls-2" d="M80,142.76a17,17,0,0,1,4.31-11.3c4.59-5.12,11.11-4.79,15.17.73,4.7,6.38,3.72,17.46-2,22.85-4.75,4.46-11.1,3.71-14.72-1.73C80.76,150.35,80,147.06,80,142.76Z"/><path class="cls-3" d="M115.24,123.11a15.14,15.14,0,0,1-8.27-2.22,8.86,8.86,0,0,1-3.15-12.35c3-5.15,7.8-7.49,13.5-8.24a15.53,15.53,0,0,1,10.09,1.84c4.81,2.77,6.29,8.1,3.38,12.82C127.25,120.71,121.66,122.77,115.24,123.11Z"/><path class="cls-4" d="M151.83,184.62c0,6.85-5,11.67-12,11.69s-12.09-4.86-12.07-11.66c0-7.06,4.84-11.71,12.11-11.66S151.84,177.64,151.83,184.62Zm-18.37-.12c-.05,4,2.52,6.89,6.22,6.93s6.4-2.8,6.44-6.74-2.54-6.85-6.25-6.89S133.51,180.45,133.46,184.5Z"/><path class="cls-5" d="M13.09,184c3.22,1.46,4.4,3.16,4.19,5.77a5.63,5.63,0,0,1-5.07,5.45,68.9,68.9,0,0,1-10,.34A2.3,2.3,0,0,1,0,193c0-5.57,0-11.15,0-16.72a2.47,2.47,0,0,1,2.75-2.68c2.44,0,4.88-.11,7.32,0,4.36.23,6.79,2.94,6.17,6.65C16,182.1,14.76,183.12,13.09,184Zm-7.91,4.78a8.8,8.8,0,0,0,0,1.78c.07.32.49.8.76.8a19.87,19.87,0,0,0,3.86-.2,2.31,2.31,0,0,0,2.08-2.5,2.27,2.27,0,0,0-2.2-2.22,12,12,0,0,0-2.08-.12C4.81,186.37,5.21,186,5.18,188.81Zm-.26-8.64c.27.72.48,2,.82,2.06a11.63,11.63,0,0,0,4.24-.31,2.39,2.39,0,0,0,1.12-2,2.72,2.72,0,0,0-1.38-1.8,5.09,5.09,0,0,0-2.33-.31C5.13,177.81,5.16,177.43,4.92,180.17Z"/><path class="cls-6" d="M69.13,196.3c-2.82-.09-4.94-.36-6.76-1.68-1.42-1-1.79-2.4-1-3.6s2.11-1.31,3.7-.53a13.33,13.33,0,0,0,3.74,1.31,2.29,2.29,0,0,0,2.78-1.89c.23-1.39-.62-2.13-1.76-2.59-1.43-.57-2.89-1.06-4.33-1.63-2.42-.95-4-2.59-4.1-5.32a6,6,0,0,1,3.54-6.2,10.28,10.28,0,0,1,10,.15,2.35,2.35,0,0,1,1.26,3.13c-.55,1.28-1.79,1.63-3.27,1.08a16,16,0,0,0-3.67-1.05,2.06,2.06,0,0,0-2.45,1.69c-.27,1.36.59,2,1.67,2.47,1.43.57,2.92,1,4.34,1.6,2.93,1.24,4.28,3.17,4.22,5.87a6.75,6.75,0,0,1-4.63,6.49A22.45,22.45,0,0,1,69.13,196.3Z"/><path class="cls-7" d="M99.87,178.1c-1.58,0-2.88.06-4.17,0a2.08,2.08,0,0,1-2.26-2.23c0-1.43.79-2.24,2.38-2.25q6.87,0,13.74,0a2,2,0,0,1,2.28,2.18,2.06,2.06,0,0,1-2.21,2.27c-1.33.08-2.67,0-4.16,0,0,.69-.12,1.21-.12,1.73,0,3.94,0,7.87,0,11.81a13.85,13.85,0,0,1-.15,2.23,2.6,2.6,0,0,1-5.13-.16,12.78,12.78,0,0,1-.06-1.64c0-4,0-8,0-11.95C100,179.49,99.92,178.86,99.87,178.1Z"/><path class="cls-8" d="M41.84,184.74c0,2.69,0,5.38,0,8.06,0,2.15-.94,3.2-2.7,3.19s-2.66-1.08-2.67-3.23q0-8.14,0-16.27c0-1.79.7-2.83,2-3.14,1.87-.46,3.34.74,3.39,2.88C41.88,179.07,41.84,181.9,41.84,184.74Z"/><path class="cls-9" d="M115.12,136.55a6.47,6.47,0,0,1-6.76.88c-1.93-.85-2.58-2.31-1.83-4.25a10.86,10.86,0,0,1,4.51-5.4,3,3,0,0,1,4.24.8,6,6,0,0,1,1.1,5.75,1.57,1.57,0,0,0,.64,2c1.14.88,2.25,1.81,3.3,2.79.27.26.29.79.42,1.19-.44-.06-1,0-1.3-.22C118,139,116.6,137.78,115.12,136.55Z"/></g></g></svg>