<svg xmlns="http://www.w3.org/2000/svg" xmlns:xlink="http://www.w3.org/1999/xlink" viewBox="0 0 362.3 362.3"><defs><style>.cls-1{fill:url(#linear-gradient);}.cls-2{fill:#f9eadc;}</style><linearGradient id="linear-gradient" x1="15.75" y1="346.54" x2="346.54" y2="15.75" gradientUnits="userSpaceOnUse"><stop offset="0" stop-color="#fa9306"/><stop offset="0.02" stop-color="#f99006"/><stop offset="0.35" stop-color="#dc5405"/><stop offset="0.64" stop-color="#c72905"/><stop offset="0.87" stop-color="#bb0e04"/><stop offset="1" stop-color="#b60404"/></linearGradient></defs><g id="Layer_2" data-name="Layer 2"><g id="Layer_1-2" data-name="Layer 1"><rect class="cls-1" width="362.3" height="362.3" rx="53.79"/><path class="cls-2" d="M232.89,173l32.95,57.5c-2,.15-3.41.37-4.87.37q-86.48,0-172.94-.09c-4.31,0-6.33,1.5-8,5.31-7.19,16.33-2.49,30.15,8.63,42.6,8.34,9.35,18.7,16,29.74,21.67,1.44.72,2.88,1.55,4.32,2.32l-.4,1c-8.5-2.76-17.1-5.22-25.48-8.31-15.81-5.83-30.9-13.1-43.76-24.25C46,265,40,258,37.38,248.83c-4-13.72.68-25.24,9.89-35.24,11.7-12.73,26.58-20.67,42.3-27.15,26.56-11,54.42-16.81,82.84-20.14a439.28,439.28,0,0,1,96.51-1.12c15.47,1.6,30.81,4.43,46.2,6.73a4.43,4.43,0,0,1,2.22,1C289.51,171,261.74,170.42,232.89,173Zm-117,30.28.35.93H219.36a15.89,15.89,0,0,0-.89-2.68c-4.4-7.68-8.73-15.41-13.38-22.94a5.28,5.28,0,0,0-4.41-1.73c-27.74,4.57-54.86,11.28-80.21,23.91C118.92,201.55,117.44,202.45,115.93,203.29Z"/><path class="cls-2" d="M167,58.6l56.87,98.67H210.07c-4.67,0-9.35-.28-14,0-2.58.14-3.86-.83-5-2.92-7-12.39-14.17-24.72-21.29-37.06-.77-1.33-1.61-2.62-2.77-4.5-2.56,4.32-4.87,8.2-7.12,12.1-6.47,11.2-12.84,22.45-19.38,33.6a6.32,6.32,0,0,1-3.53,3c-10,1.95-20,3.6-30,5.36a16.74,16.74,0,0,1-2.24,0Z"/><path class="cls-2" d="M224.54,125.66c2.73-6.64.41-11.16-4.79-15.27,7.08.24,11.05-3,12.48-10.46,2.05,3.55,3,6.72,5,8.34s5.31,1.54,9.14,2.49c-6.41,3.53-7.71,8.5-5.57,15C235.3,121.59,230.15,121.85,224.54,125.66Z"/><path class="cls-2" d="M245.69,148.46c1.59-5.55-.16-9.54-4.37-13.06,5.86.09,9.2-2.72,11-8.1,2,5.09,5.14,8.25,11.32,7.79-2,2.53-4,4.16-4.71,6.24s.2,4.41.44,7.4C254.76,146,250.37,144.61,245.69,148.46Z"/><path class="cls-2" d="M264.32,100.69c2,5.17,4.95,8.36,11.51,7.5-2.16,2.64-4.36,4.27-5,6.38s.22,4.58.46,7.35c-2.52-1-4.67-2.64-6.82-2.65s-4.35,1.55-7.3,2.74c1.86-5.43.72-9.67-3.86-13.14C259.2,108.9,262.41,105.9,264.32,100.69Z"/><path class="cls-2" d="M123.17,250.55a4.48,4.48,0,0,1-.8,2.67A5.51,5.51,0,0,1,120,255a6,6,0,0,1,3,2,4.91,4.91,0,0,1,1,3.09,5.39,5.39,0,0,1-2.37,4.82q-2.36,1.58-6.84,1.58l-1.39,0c-.49,0-1-.07-1.49-.13s-1-.13-1.51-.23-1-.23-1.4-.36a2,2,0,0,1-1.64-2V247a1.34,1.34,0,0,1,.34-1,2.45,2.45,0,0,1,1-.55,12.78,12.78,0,0,1,2.7-.53c1-.1,2.1-.16,3.22-.16a12,12,0,0,1,6.4,1.43A4.81,4.81,0,0,1,123.17,250.55ZM111.6,253.7h3.46a4.29,4.29,0,0,0,2.76-.76,2.58,2.58,0,0,0,.9-2.09q0-2.7-4.18-2.7c-.57,0-1.11,0-1.62.07a11.68,11.68,0,0,0-1.32.17Zm7.81,6.19a2.61,2.61,0,0,0-1-2.15,4.37,4.37,0,0,0-2.82-.79h-4v5.72a9.54,9.54,0,0,0,1.56.24c.6,0,1.2.07,1.8.07a6.19,6.19,0,0,0,3.27-.74A2.57,2.57,0,0,0,119.41,259.89Z"/><path class="cls-2" d="M134,266.23a2.81,2.81,0,0,1-1.85-.48,2.07,2.07,0,0,1-.55-1.61V245.2l.89-.17a6.6,6.6,0,0,1,1.17-.1,3,3,0,0,1,1.81.44A2,2,0,0,1,136,247V266l-.88.17A7.41,7.41,0,0,1,134,266.23Z"/><path class="cls-2" d="M150.77,262.87a4.49,4.49,0,0,0,2.92-.77,2.42,2.42,0,0,0,.92-1.93,2.16,2.16,0,0,0-.72-1.7,6,6,0,0,0-2.19-1.08l-2.19-.68a16.26,16.26,0,0,1-2.37-.93,7.24,7.24,0,0,1-1.81-1.21,5,5,0,0,1-1.16-1.64,5.51,5.51,0,0,1-.42-2.25,5.3,5.3,0,0,1,2.09-4.4,9.13,9.13,0,0,1,5.72-1.62,14.68,14.68,0,0,1,2.66.22,9.54,9.54,0,0,1,2.1.61,3.83,3.83,0,0,1,1.39,1,2,2,0,0,1,.5,1.3,2.07,2.07,0,0,1-.33,1.18,2.81,2.81,0,0,1-.8.81,7.78,7.78,0,0,0-2.18-1,9.62,9.62,0,0,0-3-.43,4.82,4.82,0,0,0-2.71.63,2,2,0,0,0-.92,1.73,1.61,1.61,0,0,0,.63,1.37,7,7,0,0,0,2,.93l2,.61a11.69,11.69,0,0,1,4.62,2.43,5.44,5.44,0,0,1,1.64,4.18,6,6,0,0,1-.54,2.57,5.52,5.52,0,0,1-1.6,2,7.47,7.47,0,0,1-2.6,1.31,12.76,12.76,0,0,1-3.54.46,13.79,13.79,0,0,1-2.9-.28,9.61,9.61,0,0,1-2.27-.73,4.41,4.41,0,0,1-1.49-1.1,2.15,2.15,0,0,1-.07-2.74,3.1,3.1,0,0,1,1.08-.84,8.68,8.68,0,0,0,2.26,1.39A7.93,7.93,0,0,0,150.77,262.87Z"/><path class="cls-2" d="M181,245.94a3.29,3.29,0,0,1,.15,1,2,2,0,0,1-.43,1.4,1.49,1.49,0,0,1-1.18.48h-4.73V266l-.85.17a7.88,7.88,0,0,1-1.2.1,2.79,2.79,0,0,1-1.85-.48,2,2,0,0,1-.55-1.61V248.83h-5.75a4.51,4.51,0,0,1-.33-.75,3.12,3.12,0,0,1-.15-1,2,2,0,0,1,.43-1.42,1.52,1.52,0,0,1,1.18-.47h14.93A4.44,4.44,0,0,1,181,245.94Z"/><path class="cls-2" d="M206.76,255.58a13.29,13.29,0,0,1-.78,4.73,9.74,9.74,0,0,1-2.18,3.44,9,9,0,0,1-3.3,2.09,12.62,12.62,0,0,1-8.29,0,9,9,0,0,1-3.3-2.09,9.74,9.74,0,0,1-2.18-3.44,13.28,13.28,0,0,1-.79-4.73,12.7,12.7,0,0,1,.81-4.71,9.58,9.58,0,0,1,2.21-3.42,9,9,0,0,1,3.3-2.09,12.33,12.33,0,0,1,8.19,0,9.19,9.19,0,0,1,3.3,2.09,9.72,9.72,0,0,1,2.21,3.42A12.7,12.7,0,0,1,206.76,255.58Zm-4.55,0a8.18,8.18,0,0,0-1.59-5.43,5.8,5.8,0,0,0-8.5,0,10.13,10.13,0,0,0,0,10.88,5.26,5.26,0,0,0,4.24,1.85,5.33,5.33,0,0,0,4.27-1.85A8.12,8.12,0,0,0,202.21,255.58Z"/><path class="cls-2" d="M235.29,265.51a3.67,3.67,0,0,1-1.1.51,5.37,5.37,0,0,1-1.64.24,5.2,5.2,0,0,1-1.85-.3,1.83,1.83,0,0,1-1.06-.9c-.28-.54-.6-1.26-1-2.15s-.77-1.88-1.2-3-.85-2.24-1.28-3.46-.86-2.45-1.28-3.67-.82-2.41-1.19-3.56-.67-2.22-.92-3.2a3.17,3.17,0,0,1,1-.69,3.53,3.53,0,0,1,1.46-.3,2.33,2.33,0,0,1,1.48.42,3.12,3.12,0,0,1,.88,1.46q1.2,3.84,2.38,7.47c.79,2.42,1.62,4.89,2.52,7.43h.17c.41-1.17.82-2.41,1.25-3.74s.83-2.68,1.25-4.09.81-2.82,1.21-4.25.77-2.83,1.11-4.22a4.36,4.36,0,0,1,2.09-.48,2.87,2.87,0,0,1,1.6.42,1.61,1.61,0,0,1,.63,1.43,9.54,9.54,0,0,1-.38,2.05q-.37,1.44-1,3.27c-.38,1.22-.82,2.52-1.31,3.89s-1,2.67-1.48,3.92-.94,2.35-1.37,3.32A20.87,20.87,0,0,1,235.29,265.51Z"/><path class="cls-2" d="M251.18,266.23a2.64,2.64,0,0,1-1.78-.46,2,2,0,0,1-.52-1.56V246a2.5,2.5,0,0,1,1.12-.76,4.67,4.67,0,0,1,1.62-.27,4.6,4.6,0,0,1,1.9.38,3.41,3.41,0,0,1,1.49,1.5l4.93,8.87q.69,1.23,1.32,2.55c.42.88.8,1.69,1.12,2.42l.13,0c-.11-1.34-.19-2.65-.22-3.92s-.05-2.51-.05-3.75v-7.77a6.7,6.7,0,0,1,.84-.15,7.2,7.2,0,0,1,1.14-.09,2.72,2.72,0,0,1,1.8.46,2,2,0,0,1,.53,1.56v18.49a2.41,2.41,0,0,1-1.08.58,5.78,5.78,0,0,1-1.66.21,4.67,4.67,0,0,1-1.86-.36,3.33,3.33,0,0,1-1.49-1.49l-4.93-8.87q-.69-1.2-1.32-2.55c-.42-.9-.79-1.72-1.11-2.45l-.21,0c.11,1.25.19,2.54.22,3.87s0,2.58,0,3.76V266l-.82.17A7.06,7.06,0,0,1,251.18,266.23Z"/></g></g></svg>