<?xml version="1.0" encoding="utf-8"?>
<!-- Generator: Adobe Illustrator 25.0.0, SVG Export Plug-In . SVG Version: 6.00 Build 0)  -->
<svg version="1.1" id="Layer_1" xmlns="http://www.w3.org/2000/svg" xmlns:xlink="http://www.w3.org/1999/xlink" x="0px" y="0px"
	 viewBox="0 0 633.7 340.8" style="enable-background:new 0 0 633.7 340.8;" xml:space="preserve">
<style type="text/css">
	.st0{fill:#FFFFFF;}
</style>
<g id="Layer_2_1_">
	<g id="Layer_1-2">
		<path class="st0" d="M273.8,159.1l45.8,79.9c-2.7,0.2-4.8,0.5-6.8,0.5c-80.2,0-160.3,0-240.4-0.1c-6,0-8.8,2.1-11.1,7.4
			c-10,22.7-3.5,41.9,12,59.2c11.6,13,26,22.2,41.3,30.1c2,1,4,2.1,6,3.2l-0.6,1.4c-11.8-3.8-23.8-7.3-35.4-11.5
			c-22-8.1-43-18.2-60.8-33.7C14,287,5.7,277.2,2,264.5c-5.5-19.1,0.9-35.1,13.8-49c16.3-17.7,37-28.7,58.8-37.8
			c36.9-15.3,75.7-23.4,115.2-28c44.6-5.2,89.4-6.2,134.2-1.6c21.5,2.2,42.8,6.2,64.2,9.4c1.1,0.2,2.2,0.7,3.1,1.4
			C352.5,156.3,313.9,155.5,273.8,159.1z M111.2,201.2l0.5,1.3H255c-0.3-1.3-0.7-2.5-1.2-3.7c-6.1-10.7-12.1-21.4-18.6-31.9
			c-0.9-1.5-4.2-2.7-6.1-2.4c-38.6,6.4-76.3,15.7-111.5,33.2C115.4,198.7,113.3,200,111.2,201.2z"/>
		<path class="st0" d="M182.2,0l79.1,137.2c-7,0-13.1,0-19.2,0c-6.5,0-13-0.4-19.5,0c-3.6,0.2-5.4-1.1-7-4.1
			c-9.8-17.2-19.7-34.4-29.6-51.5c-1.1-1.8-2.2-3.7-3.9-6.3c-3.6,6-6.8,11.4-9.9,16.8c-9,15.6-17.9,31.2-26.9,46.7
			c-1,1.8-3.1,3.8-4.9,4.2c-13.9,2.7-27.8,5-41.8,7.4c-1,0.1-2.1,0.1-3.1,0L182.2,0z"/>
		<path class="st0" d="M210.3,286c1.5,1.5,3.2,2.6,4.3,4.2c3.9,5.6,0.3,13.6-7.1,14.6c-5.9,0.8-11.9,0.6-17.9,0.4
			c-1,0-2.8-2.2-2.8-3.4c-0.3-9.8-0.1-19.6-0.2-29.5c0-2.8,1.2-3.9,3.9-3.8c5,0.2,10,0.3,14.9,0.5c4,0.1,7.2,1.6,8.8,5.4
			s0.4,7.1-2.6,9.9C211,284.8,210.6,285.4,210.3,286z M198.2,301c6.9,0,10.4-2.2,10.3-6.4s-3.4-5.9-10.1-6.3c-5.1-0.3-4.6,2.8-4.6,6
			S192.7,301.8,198.2,301z M193.8,278.1c-0.5,3.6,0.2,6,4.8,5.7c5.7-0.3,8.3-1.8,8.3-5.6s-2.6-5.1-8.9-5.5
			C193.5,272.5,193.6,275,193.8,278.1L193.8,278.1z"/>
		<path class="st0" d="M285.5,304.6c-5.5,1.9-8.5,0.5-10.1-4.5c-0.7-2.7-2-5.3-3.6-7.6c-1.2-1.5-3.7-2.2-5.7-2.4
			c-0.7-0.1-2.1,2.4-2.4,3.9c-0.3,2.3-0.3,4.7-0.1,7c0.1,2.6-0.1,4.5-3.6,4.5s-4.1-1.6-4.1-4.6c0.1-10.5,0.1-21,0.1-32
			c7.9-0.8,15.5-1.5,22.7,1.3c6.8,2.5,8,11,2.3,15.9c-3.1,2.7-2.7,4.6-1.1,7.5C281.9,297.1,283.6,300.7,285.5,304.6z M268.1,285.5
			c5.6,0,8.6-2.3,8.8-6.4c0.2-4.3-2.9-6.2-9.2-6.4c-5.4-0.1-3.8,3.7-4,6.5C263.4,282.8,263.3,286.3,268.1,285.5z"/>
		<path class="st0" d="M153.6,278.7c0,7.3,0.2,14.6-0.1,21.9c-0.1,1.6-1.5,4.3-2.7,4.5c-3.6,0.8-3.2-2.3-3.2-4.6
			c0-8.8-0.1-17.6,0-26.5c0-1.8,1-5,2-5.2c3-0.8,6.5-1.3,8.6,2.7c2.9,5.6,6.1,11,9.3,16.5c0.9,1.8,2.3,3.3,4,4.4v-23.2
			c4.6-1.5,6.3-0.3,6.2,3.9c-0.2,9,0,18-0.2,27c0,1.7-1,4.4-2.3,5c-2.6,1.1-4.9,0-6.5-2.9c-3.7-6.9-7.6-13.6-11.5-20.4
			c-0.7-1.2-1.6-2.4-2.4-3.5L153.6,278.7z"/>
		<path class="st0" d="M408.6,277c-0.2,4.2-0.5,7-0.5,9.7c-0.1,5.2,0.1,10.3-0.1,15.5c-0.3,1.4-1.3,2.5-2.7,3
			c-1,0.1-3.1-1.6-3.1-2.5c-0.2-10.5-0.2-21,0-31.5c0-0.9,1.6-2.5,2.3-2.4c2.6,0.4,6.1,0.6,7.4,2.3c3.6,4.9,6.3,10.5,9.4,15.8
			c1.1,2.1,2.6,4,4.4,5.5c0.1-1.8,0.4-3.6,0.4-5.4c0-5.2-0.1-10.3,0.1-15.5c0.1-1,1.8-2.4,3-2.7c0.7-0.1,2.6,1.6,2.6,2.5
			c0.2,10.5,0.1,21,0,31.5c0,0.9-1.7,2.6-2.2,2.5c-2-0.5-4.7-1-5.7-2.5c-4.3-6.7-8-13.8-12-20.7C411.1,280.7,410.2,279.5,408.6,277z
			"/>
		<path class="st0" d="M322,304.6c-5.7,2-8.5,0.4-10-4.3c-0.7-2.7-2-5.3-3.6-7.6c-1.5-1.5-3.6-2.4-5.7-2.4c-0.9,0-2.3,2.6-2.6,4.3
			c-0.3,2.3-0.4,4.7-0.1,7c0.1,2.6-0.8,4-3.7,4s-3.7-1.5-3.7-4c0.1-9.7,0.1-19.3,0-29c0-2.7,1-4,3.8-3.9c5.1,0.3,10.3,0.3,15.4,0.8
			c4.1,0.4,7.4,2.3,8.6,6.5s0.6,8.1-3.2,10.7c-3,2-2.5,4.1-1.1,6.8C318.1,296.8,319.9,300.5,322,304.6z M300,278.8
			c-0.2,3.7-0.6,7.2,5,6.8s8.7-2.6,8.5-6.9c-0.1-4-2.9-5.5-8.8-5.9C299.8,272.5,299.6,275.4,300,278.8z"/>
		<path class="st0" d="M521.7,286.1c-0.1,15.7-8.5,22.7-22,19.2c-0.7-0.1-1.3-0.3-1.9-0.6c-6.6-3.1-8.5-9-8.8-15.6
			c-0.4-7.5,0.1-15.1,7.7-19.1c6-3.4,13.4-3,18.9,1C521.3,274.9,521.6,281,521.7,286.1z M514.4,287c-0.7-3.3-0.6-6.8-2.1-9.3
			c-1.3-2.2-4.3-4.7-6.6-4.8s-6.1,1.9-7,4c-3.1,6.4-3,13.9,0.1,20.3c1,2,4.4,4.1,6.6,3.9c2.4-0.2,5.5-2.4,6.8-4.6
			C513.8,293.8,513.8,290.1,514.4,287L514.4,287z"/>
		<path class="st0" d="M262.2,93.2c3.8-9.2,0.6-15.5-6.7-21.2c9.8,0.3,15.4-4.1,17.4-14.5c2.8,4.9,4.1,9.3,7,11.6s7.4,2.2,12.7,3.5
			c-8.9,4.9-10.7,11.8-7.7,20.9C277.2,87.6,270,87.9,262.2,93.2z"/>
		<path class="st0" d="M109,304.7c4.3-11.5,8.3-22.8,12.6-33.9c1.2-3.1,8.4-3.5,9.5-0.5c4,11.2,7.6,22.6,11.4,34.1
			c-4.7,1.7-7.9,1.6-8.7-3.6c-0.7-5-4.2-5.1-8.1-5s-7.8-0.2-8.4,5.2C116.7,305.6,113.8,306.1,109,304.7z M130.9,291.3l-4.7-14.8
			h-1.4c-1.4,4.8-2.7,9.5-4.3,14.8H130.9z"/>
		<path class="st0" d="M224.1,286.9c0-4.8-0.2-9.7,0.1-14.5c0.1-1.4,2-3.6,3.1-3.7c6.6-0.3,13.3-0.2,20,0c1,0,2,1.5,3,2.3
			c-1,0.6-1.9,1.8-2.9,1.9c-4,0.3-8,0.2-12,0.2c-4.2-0.1-3.7,2.9-3.7,5.5s-0.6,5.6,3.7,5.5c2.7-0.1,5.3-0.1,8,0.2
			c1,0.1,1.9,1.2,2.9,1.9c-1,0.8-2,2.2-3.1,2.4c-2.5,0.3-5,0.3-7.5,0.1c-4-0.3-4.3,2.3-4,5.2s-1.5,6.9,3.8,6.9c4,0,8,0,12,0.3
			c1.1,0.1,2.1,1.4,3.2,2.2c-1.1,0.7-2.1,2.1-3.2,2.1c-6.6,0.2-13.3,0.1-20,0.1c-2.6,0-3.6-1-3.5-3.6
			C224.2,296.9,224.1,291.9,224.1,286.9z"/>
		<path class="st0" d="M483.3,294.3c-1.6,7.7-4.5,10.5-11.3,11.4c-8.2,1.1-14.1-1.2-17.1-7.1c-3.7-7.1-3.8-15.5-0.4-22.6
			c2.6-5.9,9.7-8.9,17.4-7.8c6.8,1,10.2,4.3,11.3,11.4c-3.3,1.4-5.7,2.1-7.7-2.5c-0.9-2.1-4.7-4.5-6.9-4.2c-2.5,0.3-6.4,3-6.8,5.2
			c-0.9,5.7-1,11.5-0.4,17.2c0.2,3.4,3.2,6.1,6.6,5.9c0.1,0,0.3,0,0.4,0c2.6-0.4,6.1-2.4,7.2-4.6
			C477.8,292.5,480.1,293.5,483.3,294.3z"/>
		<path class="st0" d="M626.8,279.9c0-3.5-0.3-6,0.1-8.4c0.2-1.1,2-2.8,2.9-2.7c1.3,0.1,3.6,1.7,3.6,2.6c0.3,11.1,0.2,22.2,0.2,33
			c-6,0.4-11.4,1.1-16.8,1c-2,0-4.5-1.5-5.9-3.1c-4.5-4.8-4.5-16.1-0.2-21S620.2,276.8,626.8,279.9z M626.8,291.8
			c0-6.5-2.1-10.2-6-10.3c-3.7-0.1-6,3.7-6,9.9c0,6.6,2.1,10.4,5.9,10.4C624.9,301.9,626.8,298.8,626.8,291.8z"/>
		<path class="st0" d="M397.4,269.4c-3.7,11.3-7.1,22.3-10.9,33.1c-0.8,1.5-2.3,2.5-4,2.7c-1.9,0.1-5.1-0.6-5.5-1.7
			c-3.9-11.3-7.4-22.7-11-34.1c6.5-1.8,7.3-1.4,9,4.3c2.2,7.3,4.3,14.5,6.5,21.8l1.4-0.1c2.3-7.6,4.6-15.2,7-22.7
			C391.4,268.2,391.7,268.1,397.4,269.4z"/>
		<path class="st0" d="M291.6,124.9c2.2-7.7-0.2-13.3-6.1-18.2c8.1,0.1,12.8-3.8,15.2-11.3c2.8,7.1,7.1,11.5,15.7,10.8
			c-2.8,3.5-5.6,5.8-6.5,8.7s0.3,6.1,0.6,10.3C304.2,121.6,298.1,119.6,291.6,124.9z"/>
		<path class="st0" d="M317.5,58.5c2.8,7.2,6.9,11.6,16,10.4c-3,3.7-6.1,5.9-7,8.9s0.3,6.4,0.6,10.2c-3.5-1.5-6.5-3.7-9.5-3.7
			s-6,2.2-10.1,3.8c2.6-7.6,1-13.4-5.4-18.3C310.4,69.9,314.9,65.8,317.5,58.5z"/>
		<path class="st0" d="M338.9,282.9c3.6-5,6.8-9.7,10.4-14.1c0.5-0.7,2.7,0,5.2,0.2c-2.6,4.4-4.5,8.2-6.9,11.7
			c-4.3,6.1-6.6,12.5-5.6,20.1c0.3,2.6,0,4.9-3.8,4.9c-3.6,0-3.8-2.4-3.4-4.7c1.4-9.3-2.8-16.8-7.5-24.1c-1.4-2.2-2.6-4.6-4.1-7.2
			c4.1-1.4,7.2-1.8,9.4,2.6C334.4,275.6,336.6,279.1,338.9,282.9z"/>
		<path class="st0" d="M562.2,286.8c0-4.8,0.1-9.6,0-14.5c-0.1-2.8,1.1-3.8,3.8-3.8s3.9,1.1,3.9,3.9c-0.1,7.3,0.2,14.6-0.1,21.9
			c-0.2,4.9,1.2,7.2,6.4,6.5c2.5-0.3,5-0.2,7.5,0.1c0.9,0.1,1.6,1.6,2.4,2.5c-0.8,0.6-1.6,1.9-2.4,1.9c-6.1,0.2-12.3,0.3-18.4,0
			c-1-0.1-2.7-2.2-2.8-3.5C562,296.8,562.2,291.8,562.2,286.8L562.2,286.8z"/>
		<path class="st0" d="M590.9,290.1c-0.5-2.1,2.2-6.7-3.3-8.5c-0.2-0.1,0.1-3,0.4-3.1c3.3-0.6,3.5-3,3.9-5.5
			c0.1-0.8,1.9-1.8,2.9-1.7s2.6,1.2,2.6,2c0.1,3.2,1.1,5,4.6,5.1c0.6,0,1.6,1.3,1.6,2c-0.2,0.9-0.9,1.6-1.8,1.8
			c-4.2,0.1-4.3,2.8-4.2,5.8c0.1,2.5,0,5,0,7.5c0,3.3,0.8,5.9,4.8,6.3c0.9,0.1,1.7,1.5,2.5,2.2c-0.9,0.6-1.6,1.6-2.6,1.8
			c-6.4,1.7-10.4-1-11.1-7.5C591.1,296,591,293.6,590.9,290.1z"/>
		<path class="st0" d="M548.3,312.8c-0.8-3.5-1.5-6.3-1.9-9.1c-0.2-1.3,0-3.5,0.8-4c1.5-0.7,3.2-0.8,4.7-0.4c0.8,0.2,1.6,2,1.6,3.1
			C553.4,306.9,550.9,310.2,548.3,312.8z"/>
		<path class="st0" d="M533,307.5c-1.7-2.8-3.4-4.3-3.1-5.2c0.6-1.5,1.9-2.7,3.5-3.1c0.9-0.2,3.1,1.8,3.1,2.9
			C536.5,303.4,534.8,304.8,533,307.5z"/>
	</g>
</g>
</svg>
